<?xml version="1.0" encoding="utf-8"?>
<svg width="373.07056px" height="373.07053px" viewBox="0 0 373.07056 373.07053" version="1.1" xmlns:xlink="http://www.w3.org/1999/xlink" xmlns="http://www.w3.org/2000/svg">
  <defs>
    <filter filterUnits="userSpaceOnUse" color-interpolation-filters="sRGB" id="filter_1">
      <feFlood flood-opacity="0" result="BackgroundImageFix" />
      <feColorMatrix in="SourceAlpha" type="matrix" values="0 0 0 0 0 0 0 0 0 0 0 0 0 0 0 0 0 0 128 0" />
      <feOffset dx="0" dy="2" />
      <feGaussianBlur stdDeviation="2" />
      <feColorMatrix type="matrix" values="0 0 0 0 0.39215687 0 0 0 0 0.39215687 0 0 0 0 0.39215687 0 0 0 0.49803922 0" />
      <feBlend mode="normal" in2="BackgroundImageFix" result="effect0_dropShadow" />
      <feBlend mode="normal" in="SourceGraphic" in2="effect0_dropShadow" result="shape" />
    </filter>
    <path d="M0 186.535C0 83.5147 83.515 0 186.535 0C289.556 0 373.071 83.5147 373.071 186.535C373.071 289.556 289.556 373.07 186.535 373.07C83.515 373.07 0 289.556 0 186.535Z" id="path_1" />
    <path d="M0 0L254.883 0L254.883 339.756L0 339.756L0 0Z" id="path_2" />
    <path d="M45.8399 96.9149L95.0796 96.9149L95.0796 114.889L45.8399 114.889L45.8399 96.9149Z" id="path_3" />
    <path d="M0 0L49.2399 0L49.2399 17.9765L0 17.9765L0 0Z" id="path_4" />
    <path d="M47.4151 0L96.6549 0L96.6549 17.9765L47.4151 17.9765L47.4151 0Z" id="path_5" />
    <path d="M24.4894 16.1524L73.7293 16.1524L73.7293 34.1288L24.4894 34.1288L24.4894 16.1524Z" id="path_6" />
    <path d="M140.67 96.9149L189.91 96.9149L189.91 114.889L140.67 114.889L140.67 96.9149Z" id="path_7" />
    <path d="M93.6645 96.8395L142.904 96.8395L142.904 114.814L93.6645 114.814L93.6645 96.8395Z" id="path_8" />
    <path d="M0 96.8395L49.2395 96.8395L49.2395 114.814L0 114.814L0 96.8395Z" id="path_9" />
    <path d="M72.4128 80.7624L121.652 80.7624L121.652 98.7389L72.4128 98.7389L72.4128 80.7624Z" id="path_10" />
    <path d="M0 0L49.2398 0L49.2398 17.9765L0 17.9765L0 0Z" id="path_11" />
    <path d="M47.4151 0L96.6548 0L96.6548 17.9765L47.4151 17.9765L47.4151 0Z" id="path_12" />
    <path d="M24.4893 16.1524L73.729 16.1524L73.729 34.1288L24.4893 34.1288L24.4893 16.1524Z" id="path_13" />
    <path d="M0 0L49.2397 0L49.2397 17.9764L0 17.9764L0 0Z" id="path_14" />
    <path d="M47.4153 0L96.6549 0L96.6549 17.9764L47.4153 17.9764L47.4153 0Z" id="path_15" />
    <path d="M24.4894 16.1523L73.7291 16.1523L73.7291 34.1289L24.4894 34.1289L24.4894 16.1523Z" id="path_16" />
    <path d="M72.1526 48.4576L121.653 48.4576L121.653 66.4341L72.1526 66.4341L72.1526 48.4576Z" id="path_17" />
    <path d="M47.4151 0L96.6546 0L96.6546 17.9764L47.4151 17.9764L47.4151 0Z" id="path_18" />
    <path d="M24.4893 16.1523L73.7289 16.1523L73.7289 34.1289L24.4893 34.1289L24.4893 16.1523Z" id="path_19" />
    <path d="M0 0L49.2393 0L49.2393 17.9762L0 17.9762L0 0Z" id="path_20" />
    <path d="M47.6257 0L96.8698 0L96.8698 17.9762L47.6257 17.9762L47.6257 0Z" id="path_21" />
    <path d="M24.6067 15.8754L73.846 15.8754L73.846 33.8517L24.6067 33.8517L24.6067 15.8754Z" id="path_22" />
    <path d="M24.4893 16.1527L73.729 16.1527L73.729 34.1291L24.4893 34.1291L24.4893 16.1527Z" id="path_23" />
    <path d="M71.4387 15.8754L120.939 15.8754L120.939 33.8517L71.4387 33.8517L71.4387 15.8754Z" id="path_24" />
    <clipPath id="clip_1">
      <use xlink:href="#path_1" />
    </clipPath>
    <clipPath id="clip_2">
      <use xlink:href="#path_2" clip-rule="evenodd" fill-rule="evenodd" transform="translate(0, -52.67758)" />
    </clipPath>
    <clipPath id="clip_3">
      <use xlink:href="#path_3" />
    </clipPath>
    <clipPath id="clip_4">
      <use xlink:href="#path_4" />
    </clipPath>
    <clipPath id="clip_5">
      <use xlink:href="#path_5" />
    </clipPath>
    <clipPath id="clip_6">
      <use xlink:href="#path_6" />
    </clipPath>
    <clipPath id="clip_7">
      <use xlink:href="#path_7" />
    </clipPath>
    <clipPath id="clip_8">
      <use xlink:href="#path_8" />
    </clipPath>
    <clipPath id="clip_9">
      <use xlink:href="#path_9" />
    </clipPath>
    <clipPath id="clip_10">
      <use xlink:href="#path_10" />
    </clipPath>
    <clipPath id="clip_11">
      <use xlink:href="#path_11" />
    </clipPath>
    <clipPath id="clip_12">
      <use xlink:href="#path_12" />
    </clipPath>
    <clipPath id="clip_13">
      <use xlink:href="#path_13" />
    </clipPath>
    <clipPath id="clip_14">
      <use xlink:href="#path_14" />
    </clipPath>
    <clipPath id="clip_15">
      <use xlink:href="#path_15" />
    </clipPath>
    <clipPath id="clip_16">
      <use xlink:href="#path_16" />
    </clipPath>
    <clipPath id="clip_17">
      <use xlink:href="#path_17" />
    </clipPath>
    <clipPath id="clip_18">
      <use xlink:href="#path_18" />
    </clipPath>
    <clipPath id="clip_19">
      <use xlink:href="#path_19" />
    </clipPath>
    <clipPath id="clip_20">
      <use xlink:href="#path_20" />
    </clipPath>
    <clipPath id="clip_21">
      <use xlink:href="#path_21" />
    </clipPath>
    <clipPath id="clip_22">
      <use xlink:href="#path_22" />
    </clipPath>
    <clipPath id="clip_23">
      <use xlink:href="#path_23" />
    </clipPath>
    <clipPath id="clip_24">
      <use xlink:href="#path_24" />
    </clipPath>
  </defs>
  <g id="Logo">
    <g id="Oval">
      <use stroke="none" fill="#415A76" xlink:href="#path_1" fill-rule="evenodd" />
      <g clip-path="url(#clip_1)">
        <use xlink:href="#path_1" fill="none" stroke="#1C263B" stroke-width="70" />
      </g>
    </g>
    <g id="Group" transform="matrix(0.99999964 0 0 0.99999964 16.692383 16.692017)">
      <path d="M0 169.665C0 78.4076 76.0514 4.42892 169.865 4.42892C263.68 4.42892 339.729 78.4076 339.729 169.665C339.729 260.922 263.68 334.899 169.865 334.899C76.0514 334.899 0 260.922 0 169.665Z" id="Oval" fill="#1C263B" fill-rule="evenodd" stroke="#415A76" stroke-width="15" filter="url(#filter_1)" />
      <g id="3Y-Brick-Veneer" clip-path="url(#clip_2)" transform="matrix(0.99999726 0 0 0.99999726 42.20499 52.67758)">
        <g transform="translate(61.9937, 7.2)" id="3Y-Brick" fill="#FFFFFF">
          <path d="M16.56 24.012Q17.28 25.74 17.28 27.972Q17.28 29.988 16.668 31.536Q15.84 33.804 13.932 35.046Q12.024 36.288 9.324 36.288Q6.66 36.288 4.698 34.938Q2.736 33.588 1.908 31.284Q1.476 30.168 1.404 28.368Q1.404 27.936 1.836 27.936L5.184 27.936Q5.616 27.936 5.616 28.368Q5.688 29.52 5.976 30.204Q6.3 31.356 7.182 32.022Q8.064 32.688 9.324 32.688Q11.7 32.688 12.6 30.528Q13.068 29.484 13.068 27.828Q13.068 25.992 12.528 24.804Q11.592 22.788 9.288 22.788Q8.676 22.788 7.632 23.508Q7.488 23.58 7.38 23.58Q7.2 23.58 7.02 23.364L5.364 21.06Q5.256 20.88 5.256 20.772Q5.256 20.592 5.4 20.448L11.34 14.616Q11.412 14.544 11.376 14.472Q11.34 14.4 11.232 14.4L2.232 14.4Q2.052 14.4 1.926 14.274Q1.8 14.148 1.8 13.968L1.8 11.232Q1.8 11.052 1.926 10.926Q2.052 10.8 2.232 10.8L16.596 10.8Q16.776 10.8 16.902 10.926Q17.028 11.052 17.028 11.232L17.028 14.364Q17.028 14.688 16.812 14.904L11.664 20.088Q11.52 20.232 11.808 20.304Q15.156 20.772 16.56 24.012ZM28.224 35.964Q28.044 35.964 27.918 35.838Q27.792 35.712 27.792 35.532L27.792 25.884Q27.792 25.74 27.756 25.668L20.34 11.304Q20.268 11.16 20.268 11.088Q20.268 10.8 20.664 10.8L24.228 10.8Q24.588 10.8 24.732 11.124L29.772 21.168Q29.88 21.312 29.988 21.168L35.064 11.124Q35.244 10.8 35.568 10.8L39.168 10.8Q39.42 10.8 39.51 10.944Q39.6 11.088 39.492 11.304L32.04 25.668Q31.968 25.812 31.968 25.884L31.968 35.532Q31.968 35.712 31.842 35.838Q31.716 35.964 31.536 35.964L28.224 35.964ZM64.584 22.86Q64.368 22.968 64.584 23.076Q68.256 24.804 68.256 29.016Q68.256 32.436 65.97 34.218C64.446 35.406 62.46 36 60.012 36L50.94 36C50.82 36 50.718 35.958 50.634 35.874Q50.508 35.748 50.508 35.568L50.508 11.232Q50.508 11.052 50.634 10.926Q50.76 10.8 50.94 10.8L59.724 10.8Q63.648 10.8 65.772 12.492Q67.896 14.184 67.896 17.604Q67.896 21.384 64.584 22.86ZM54.864 14.4Q54.684 14.4 54.684 14.58L54.684 21.24Q54.684 21.42 54.864 21.42L59.724 21.42Q61.632 21.42 62.73 20.502Q63.828 19.584 63.828 17.964Q63.828 16.308 62.73 15.354Q61.632 14.4 59.724 14.4L54.864 14.4ZM60.012 32.364Q61.884 32.364 62.982 31.356Q64.08 30.348 64.08 28.62Q64.08 26.856 62.964 25.866Q61.848 24.876 59.94 24.876L54.864 24.876Q54.684 24.876 54.684 25.056L54.684 32.184Q54.684 32.364 54.864 32.364L60.012 32.364ZM81.072 17.388Q82.224 17.388 83.088 17.856Q83.376 18 83.304 18.396L82.692 21.636Q82.656 22.068 82.188 21.888Q81.648 21.708 80.928 21.708Q80.46 21.708 80.208 21.744Q78.696 21.816 77.688 22.806Q76.68 23.796 76.68 25.38L76.68 35.568Q76.68 35.748 76.554 35.874C76.47 35.958 76.368 36 76.248 36L72.936 36C72.816 36 72.714 35.958 72.63 35.874Q72.504 35.748 72.504 35.568L72.504 18.036Q72.504 17.856 72.63 17.73Q72.756 17.604 72.936 17.604L76.248 17.604Q76.428 17.604 76.554 17.73Q76.68 17.856 76.68 18.036L76.68 19.656Q76.68 19.8 76.734 19.818Q76.788 19.836 76.86 19.728Q78.372 17.388 81.072 17.388ZM88.416 15.084Q87.3 15.084 86.58 14.364Q85.86 13.644 85.86 12.528Q85.86 11.412 86.58 10.692Q87.3 9.972 88.416 9.972Q89.532 9.972 90.252 10.692Q90.972 11.412 90.972 12.528Q90.972 13.644 90.252 14.364Q89.532 15.084 88.416 15.084ZM86.688 36C86.568 36 86.466 35.958 86.382 35.874Q86.256 35.748 86.256 35.568L86.256 18Q86.256 17.82 86.382 17.694Q86.508 17.568 86.688 17.568L90 17.568Q90.18 17.568 90.306 17.694Q90.432 17.82 90.432 18L90.432 35.568Q90.432 35.748 90.306 35.874C90.222 35.958 90.12 36 90 36L86.688 36ZM102.888 36.288Q100.116 36.288 98.1 34.866Q96.084 33.444 95.292 31.032Q94.716 29.412 94.716 26.712Q94.716 24.12 95.292 22.464Q96.048 20.088 98.082 18.702Q100.116 17.316 102.888 17.316Q105.696 17.316 107.784 18.72Q109.872 20.124 110.556 22.248Q110.736 22.824 110.808 23.4L110.808 23.472Q110.808 23.832 110.412 23.904L107.172 24.372L107.1 24.372Q106.776 24.372 106.668 24.012Q106.668 23.832 106.632 23.724Q106.56 23.436 106.488 23.22Q106.164 22.212 105.192 21.564Q104.22 20.916 102.888 20.916Q101.52 20.916 100.566 21.618Q99.612 22.32 99.288 23.544Q98.928 24.696 98.928 26.748Q98.928 28.728 99.252 29.952Q99.612 31.212 100.548 31.95Q101.484 32.688 102.888 32.688Q104.256 32.688 105.246 31.986Q106.236 31.284 106.524 30.096Q106.56 30.024 106.56 29.916Q106.596 29.88 106.596 29.808Q106.704 29.376 107.1 29.448L110.34 29.952Q110.52 29.988 110.646 30.114Q110.772 30.24 110.736 30.456Q110.628 31.032 110.556 31.284Q109.872 33.588 107.784 34.938Q105.696 36.288 102.888 36.288ZM114.768 36C114.648 36 114.546 35.958 114.462 35.874Q114.336 35.748 114.336 35.568L114.336 11.232Q114.336 11.052 114.462 10.926Q114.588 10.8 114.768 10.8L118.08 10.8Q118.26 10.8 118.386 10.926Q118.512 11.052 118.512 11.232L118.512 24.228Q118.512 24.336 118.584 24.372Q118.656 24.408 118.728 24.3L124.56 17.856Q124.812 17.604 125.1 17.604L128.916 17.604Q129.276 17.604 129.276 17.856Q129.276 17.964 129.168 18.144L124.596 23.616Q124.488 23.724 124.56 23.868L129.96 35.496Q130.032 35.64 130.032 35.712C130.032 35.904 129.9 36 129.636 36L126.144 36C125.904 36 125.736 35.892 125.64 35.676L121.716 26.532Q121.68 26.46 121.59 26.442Q121.5 26.424 121.464 26.496L118.584 29.808Q118.512 29.952 118.512 30.06L118.512 35.568Q118.512 35.748 118.386 35.874C118.302 35.958 118.2 36 118.08 36L114.768 36Z" />
        </g>
        <g transform="translate(71.7857, 198.4)" id="Veneer" fill="#FFFFFF">
          <path d="M9.144 36C8.904 36 8.748 35.88 8.676 35.64L1.116 11.304L1.08 11.16Q1.08 10.8 1.476 10.8L5.04 10.8Q5.436 10.8 5.544 11.16L10.944 29.952Q10.98 30.06 11.052 30.06Q11.124 30.06 11.16 29.952L16.524 11.16Q16.632 10.8 17.028 10.8L20.52 10.8Q20.736 10.8 20.844 10.944Q20.952 11.088 20.88 11.304L13.212 35.64C13.14 35.88 12.984 36 12.744 36L9.144 36ZM37.656 24.732Q37.8 25.632 37.8 26.748L37.764 27.864Q37.764 28.296 37.332 28.296L26.064 28.296Q25.884 28.296 25.884 28.476Q25.992 29.664 26.208 30.096Q27.072 32.688 30.42 32.724Q32.868 32.724 34.308 30.708Q34.452 30.492 34.668 30.492Q34.812 30.492 34.92 30.6L37.152 32.436Q37.476 32.688 37.26 33.012Q36.144 34.596 34.29 35.46Q32.436 36.324 30.168 36.324Q27.36 36.324 25.398 35.064Q23.436 33.804 22.536 31.536Q21.708 29.592 21.708 26.136Q21.708 24.048 22.14 22.752Q22.86 20.232 24.858 18.774Q26.856 17.316 29.664 17.316Q36.756 17.316 37.656 24.732ZM29.664 20.916Q28.332 20.916 27.45 21.582Q26.568 22.248 26.208 23.436Q25.992 24.048 25.92 25.02Q25.848 25.2 26.064 25.2L33.372 25.2Q33.552 25.2 33.552 25.02Q33.48 24.12 33.336 23.652Q33.012 22.356 32.058 21.636Q31.104 20.916 29.664 20.916ZM50.436 17.316Q53.352 17.316 55.098 19.044Q56.844 20.772 56.844 23.76L56.844 35.568Q56.844 35.748 56.718 35.874C56.634 35.958 56.532 36 56.412 36L53.1 36C52.98 36 52.878 35.958 52.794 35.874Q52.668 35.748 52.668 35.568L52.668 24.624Q52.668 22.968 51.732 21.942Q50.796 20.916 49.248 20.916Q47.7 20.916 46.746 21.924Q45.792 22.932 45.792 24.588L45.792 35.568Q45.792 35.748 45.666 35.874C45.582 35.958 45.48 36 45.36 36L42.048 36C41.928 36 41.826 35.958 41.742 35.874Q41.616 35.748 41.616 35.568L41.616 18.036Q41.616 17.856 41.742 17.73Q41.868 17.604 42.048 17.604L45.36 17.604Q45.54 17.604 45.666 17.73Q45.792 17.856 45.792 18.036L45.792 19.188Q45.792 19.296 45.864 19.332Q45.936 19.368 45.972 19.26Q47.448 17.316 50.436 17.316ZM76.572 24.732Q76.716 25.632 76.716 26.748L76.68 27.864Q76.68 28.296 76.248 28.296L64.98 28.296Q64.8 28.296 64.8 28.476Q64.908 29.664 65.124 30.096Q65.988 32.688 69.336 32.724Q71.784 32.724 73.224 30.708Q73.368 30.492 73.584 30.492Q73.728 30.492 73.836 30.6L76.068 32.436Q76.392 32.688 76.176 33.012Q75.06 34.596 73.206 35.46Q71.352 36.324 69.084 36.324Q66.276 36.324 64.314 35.064Q62.352 33.804 61.452 31.536Q60.624 29.592 60.624 26.136Q60.624 24.048 61.056 22.752Q61.776 20.232 63.774 18.774Q65.772 17.316 68.58 17.316Q75.672 17.316 76.572 24.732ZM68.58 20.916Q67.248 20.916 66.366 21.582Q65.484 22.248 65.124 23.436Q64.908 24.048 64.836 25.02Q64.764 25.2 64.98 25.2L72.288 25.2Q72.468 25.2 72.468 25.02Q72.396 24.12 72.252 23.652Q71.928 22.356 70.974 21.636Q70.02 20.916 68.58 20.916ZM96.048 24.732Q96.192 25.632 96.192 26.748L96.156 27.864Q96.156 28.296 95.724 28.296L84.456 28.296Q84.276 28.296 84.276 28.476Q84.384 29.664 84.6 30.096Q85.464 32.688 88.812 32.724Q91.26 32.724 92.7 30.708Q92.844 30.492 93.06 30.492Q93.204 30.492 93.312 30.6L95.544 32.436Q95.868 32.688 95.652 33.012Q94.536 34.596 92.682 35.46Q90.828 36.324 88.56 36.324Q85.752 36.324 83.79 35.064Q81.828 33.804 80.928 31.536Q80.1 29.592 80.1 26.136Q80.1 24.048 80.532 22.752Q81.252 20.232 83.25 18.774Q85.248 17.316 88.056 17.316Q95.148 17.316 96.048 24.732ZM88.056 20.916Q86.724 20.916 85.842 21.582Q84.96 22.248 84.6 23.436Q84.384 24.048 84.312 25.02Q84.24 25.2 84.456 25.2L91.764 25.2Q91.944 25.2 91.944 25.02Q91.872 24.12 91.728 23.652Q91.404 22.356 90.45 21.636Q89.496 20.916 88.056 20.916ZM108.576 17.388Q109.728 17.388 110.592 17.856Q110.88 18 110.808 18.396L110.196 21.636Q110.16 22.068 109.692 21.888Q109.152 21.708 108.432 21.708Q107.964 21.708 107.712 21.744Q106.2 21.816 105.192 22.806Q104.184 23.796 104.184 25.38L104.184 35.568Q104.184 35.748 104.058 35.874C103.974 35.958 103.872 36 103.752 36L100.44 36C100.32 36 100.218 35.958 100.134 35.874Q100.008 35.748 100.008 35.568L100.008 18.036Q100.008 17.856 100.134 17.73Q100.26 17.604 100.44 17.604L103.752 17.604Q103.932 17.604 104.058 17.73Q104.184 17.856 104.184 18.036L104.184 19.656Q104.184 19.8 104.238 19.818Q104.292 19.836 104.364 19.728Q105.876 17.388 108.576 17.388Z" />
        </g>
      </g>
    </g>
    <g id="Group-8" transform="matrix(0.99999976 0 0 0.99999976 90 140)">
      <g id="Rectangle-3">
        <use stroke="none" fill="#7C573D" xlink:href="#path_3" fill-rule="evenodd" />
        <g clip-path="url(#clip_3)">
          <use xlink:href="#path_3" fill="none" stroke="#FFFFFF" stroke-width="4" />
        </g>
      </g>
      <g id="Group-7" transform="translate(95.078804 64.61008)">
        <g id="Rectangle-2">
          <use stroke="none" fill="#BA9F81" xlink:href="#path_4" fill-rule="evenodd" />
          <g clip-path="url(#clip_4)">
            <use xlink:href="#path_4" fill="none" stroke="#FFFFFF" stroke-width="4" />
          </g>
        </g>
        <g id="Rectangle-3">
          <use stroke="none" fill="#343331" xlink:href="#path_5" fill-rule="evenodd" />
          <g clip-path="url(#clip_5)">
            <use xlink:href="#path_5" fill="none" stroke="#FFFFFF" stroke-width="4" />
          </g>
        </g>
        <g id="Rectangle">
          <use stroke="none" fill="#BBA99B" xlink:href="#path_6" fill-rule="evenodd" />
          <g clip-path="url(#clip_6)">
            <use xlink:href="#path_6" fill="none" stroke="#FFFFFF" stroke-width="4" />
          </g>
        </g>
      </g>
      <g id="Rectangle-5">
        <use stroke="none" fill="#6B3324" xlink:href="#path_7" fill-rule="evenodd" />
        <g clip-path="url(#clip_7)">
          <use xlink:href="#path_7" fill="none" stroke="#FFFFFF" stroke-width="4" />
        </g>
      </g>
      <g id="Rectangle-4">
        <use stroke="none" fill="#503529" xlink:href="#path_8" fill-rule="evenodd" />
        <g clip-path="url(#clip_8)">
          <use xlink:href="#path_8" fill="none" stroke="#FFFFFF" stroke-width="4" />
        </g>
      </g>
      <g id="Rectangle-2">
        <use stroke="none" fill="#503529" xlink:href="#path_9" fill-rule="evenodd" />
        <g clip-path="url(#clip_9)">
          <use xlink:href="#path_9" fill="none" stroke="#FFFFFF" stroke-width="4" />
        </g>
      </g>
      <g id="Rectangle">
        <use stroke="none" fill="#C48E54" xlink:href="#path_10" fill-rule="evenodd" />
        <g clip-path="url(#clip_10)">
          <use xlink:href="#path_10" fill="none" stroke="#FFFFFF" stroke-width="4" />
        </g>
      </g>
      <g id="Group-6" transform="translate(0.24835968 64.61008)">
        <g id="Rectangle-2">
          <use stroke="none" fill="#343331" xlink:href="#path_11" fill-rule="evenodd" />
          <g clip-path="url(#clip_11)">
            <use xlink:href="#path_11" fill="none" stroke="#FFFFFF" stroke-width="4" />
          </g>
        </g>
        <g id="Rectangle-3">
          <use stroke="none" fill="#503529" xlink:href="#path_12" fill-rule="evenodd" />
          <g clip-path="url(#clip_12)">
            <use xlink:href="#path_12" fill="none" stroke="#FFFFFF" stroke-width="4" />
          </g>
        </g>
        <g id="Rectangle">
          <use stroke="none" fill="#BBA99B" xlink:href="#path_13" fill-rule="evenodd" />
          <g clip-path="url(#clip_13)">
            <use xlink:href="#path_13" fill="none" stroke="#FFFFFF" stroke-width="4" />
          </g>
        </g>
      </g>
      <g id="Group-5" transform="translate(94.45899 32.543854)">
        <g id="Rectangle-2">
          <use stroke="none" fill="#C48E54" xlink:href="#path_14" fill-rule="evenodd" />
          <g clip-path="url(#clip_14)">
            <use xlink:href="#path_14" fill="none" stroke="#FFFFFF" stroke-width="4" />
          </g>
        </g>
        <g id="Rectangle-3">
          <use stroke="none" fill="#503529" xlink:href="#path_15" fill-rule="evenodd" />
          <g clip-path="url(#clip_15)">
            <use xlink:href="#path_15" fill="none" stroke="#FFFFFF" stroke-width="4" />
          </g>
        </g>
        <g id="Rectangle">
          <use stroke="none" fill="#6B3324" xlink:href="#path_16" fill-rule="evenodd" />
          <g clip-path="url(#clip_16)">
            <use xlink:href="#path_16" fill="none" stroke="#FFFFFF" stroke-width="4" />
          </g>
        </g>
      </g>
      <g id="Rectangle-7">
        <use stroke="none" fill="#7C573D" xlink:href="#path_17" fill-rule="evenodd" />
        <g clip-path="url(#clip_17)">
          <use xlink:href="#path_17" fill="none" stroke="#FFFFFF" stroke-width="4" />
        </g>
      </g>
      <g id="Group-4" transform="translate(0 32.543854)">
        <g id="Rectangle-2">
          <use stroke="none" fill="#343331" xlink:href="#path_14" fill-rule="evenodd" />
          <g clip-path="url(#clip_14)">
            <use xlink:href="#path_14" fill="none" stroke="#FFFFFF" stroke-width="4" />
          </g>
        </g>
        <g id="Rectangle-3">
          <use stroke="none" fill="#BBA99B" xlink:href="#path_18" fill-rule="evenodd" />
          <g clip-path="url(#clip_18)">
            <use xlink:href="#path_18" fill="none" stroke="#FFFFFF" stroke-width="4" />
          </g>
        </g>
        <g id="Rectangle">
          <use stroke="none" fill="#C48E54" xlink:href="#path_19" fill-rule="evenodd" />
          <g clip-path="url(#clip_19)">
            <use xlink:href="#path_19" fill="none" stroke="#FFFFFF" stroke-width="4" />
          </g>
        </g>
      </g>
      <g id="Group-3" transform="translate(94.28571 0)">
        <g id="Rectangle-2">
          <use stroke="none" fill="#503529" xlink:href="#path_20" fill-rule="evenodd" />
          <g clip-path="url(#clip_20)">
            <use xlink:href="#path_20" fill="none" stroke="#FFFFFF" stroke-width="4" />
          </g>
        </g>
        <g id="Rectangle-3">
          <use stroke="none" fill="#C48E54" xlink:href="#path_21" fill-rule="evenodd" />
          <g clip-path="url(#clip_21)">
            <use xlink:href="#path_21" fill="none" stroke="#FFFFFF" stroke-width="4" />
          </g>
        </g>
        <g id="Rectangle">
          <use stroke="none" fill="#7C573D" xlink:href="#path_22" fill-rule="evenodd" />
          <g clip-path="url(#clip_22)">
            <use xlink:href="#path_22" fill="none" stroke="#FFFFFF" stroke-width="4" />
          </g>
        </g>
      </g>
      <g id="Group-2" transform="translate(0.24835968 0)">
        <g id="Rectangle-2">
          <use stroke="none" fill="#BBA99B" xlink:href="#path_11" fill-rule="evenodd" />
          <g clip-path="url(#clip_11)">
            <use xlink:href="#path_11" fill="none" stroke="#FFFFFF" stroke-width="4" />
          </g>
        </g>
        <g id="Rectangle-3">
          <use stroke="none" fill="#BA9F81" xlink:href="#path_12" fill-rule="evenodd" />
          <g clip-path="url(#clip_12)">
            <use xlink:href="#path_12" fill="none" stroke="#FFFFFF" stroke-width="4" />
          </g>
        </g>
        <g id="Rectangle">
          <use stroke="none" fill="#6B3324" xlink:href="#path_23" fill-rule="evenodd" />
          <g clip-path="url(#clip_23)">
            <use xlink:href="#path_23" fill="none" stroke="#FFFFFF" stroke-width="4" />
          </g>
        </g>
      </g>
      <g id="Rectangle-6">
        <use stroke="none" fill="#343331" xlink:href="#path_24" fill-rule="evenodd" />
        <g clip-path="url(#clip_24)">
          <use xlink:href="#path_24" fill="none" stroke="#FFFFFF" stroke-width="4" />
        </g>
      </g>
    </g>
  </g>
</svg>