<?xml version="1.0" encoding="utf-8"?>
<svg width="1432px" height="1432px" viewBox="0 0 1432 1432" version="1.1" xmlns:xlink="http://www.w3.org/1999/xlink" xmlns="http://www.w3.org/2000/svg">
  <defs>
    <filter filterUnits="userSpaceOnUse" color-interpolation-filters="sRGB" id="filter_1">
      <feFlood flood-opacity="0" result="BackgroundImageFix" />
      <feColorMatrix in="SourceAlpha" type="matrix" values="0 0 0 0 0 0 0 0 0 0 0 0 0 0 0 0 0 0 128 0" />
      <feOffset dx="0" dy="2" />
      <feGaussianBlur stdDeviation="2" />
      <feColorMatrix type="matrix" values="0 0 0 0 0.39215687 0 0 0 0 0.39215687 0 0 0 0 0.39215687 0 0 0 0.49803922 0" />
      <feBlend mode="normal" in2="BackgroundImageFix" result="effect0_dropShadow" />
      <feBlend mode="normal" in="SourceGraphic" in2="effect0_dropShadow" result="shape" />
    </filter>
    <path d="M0 716C0 320.564 320.565 0 716 0C1111.44 0 1432 320.564 1432 716C1432 1111.44 1111.44 1432 716 1432C320.565 1432 0 1111.44 0 716Z" id="path_1" />
    <path d="M0 0L978.254 0L978.254 1304L0 1304L0 0Z" id="path_2" />
    <path d="M179 372L368 372L368 441L179 441L179 372Z" id="path_3" />
    <path d="M0 0L189 0L189 69L0 69L0 0Z" id="path_4" />
    <path d="M182 0L371 0L371 69L182 69L182 0Z" id="path_5" />
    <path d="M94 62L283 62L283 131L94 131L94 62Z" id="path_6" />
    <path d="M543 372L732 372L732 441L543 441L543 372Z" id="path_7" />
    <path d="M361 372L550 372L550 441L361 441L361 372Z" id="path_8" />
    <path d="M0 372L189 372L189 441L0 441L0 372Z" id="path_9" />
    <path d="M281 310L470 310L470 379L281 379L281 310Z" id="path_10" />
    <path d="M280 186L470 186L470 255L280 255L280 186Z" id="path_11" />
    <path d="M280 62L470 62L470 131L280 131L280 62Z" id="path_12" />
    <clipPath id="clip_1">
      <use xlink:href="#path_1" />
    </clipPath>
    <clipPath id="clip_2">
      <use xlink:href="#path_2" clip-rule="evenodd" fill-rule="evenodd" transform="translate(0, -154.20001)" />
    </clipPath>
    <clipPath id="clip_3">
      <use xlink:href="#path_3" />
    </clipPath>
    <clipPath id="clip_4">
      <use xlink:href="#path_4" />
    </clipPath>
    <clipPath id="clip_5">
      <use xlink:href="#path_5" />
    </clipPath>
    <clipPath id="clip_6">
      <use xlink:href="#path_6" />
    </clipPath>
    <clipPath id="clip_7">
      <use xlink:href="#path_7" />
    </clipPath>
    <clipPath id="clip_8">
      <use xlink:href="#path_8" />
    </clipPath>
    <clipPath id="clip_9">
      <use xlink:href="#path_9" />
    </clipPath>
    <clipPath id="clip_10">
      <use xlink:href="#path_10" />
    </clipPath>
    <clipPath id="clip_11">
      <use xlink:href="#path_11" />
    </clipPath>
    <clipPath id="clip_12">
      <use xlink:href="#path_12" />
    </clipPath>
  </defs>
  <g id="Logo">
    <g id="Oval">
      <use stroke="none" fill="#415A76" xlink:href="#path_1" fill-rule="evenodd" />
      <g clip-path="url(#clip_1)">
        <use xlink:href="#path_1" fill="none" stroke="#1C263B" stroke-width="70" />
      </g>
    </g>
    <g id="Group" transform="translate(64 64)">
      <path d="M0 651.232C0 300.955 291.911 17 652.001 17C1012.09 17 1304 300.955 1304 651.232C1304 1001.51 1012.09 1285.46 652.001 1285.46C291.911 1285.46 0 1001.51 0 651.232Z" id="Oval" fill="#1C263B" fill-rule="evenodd" stroke="#415A76" stroke-width="15" filter="url(#filter_1)" />
      <g id="3Y-Brick-Veneer" clip-path="url(#clip_2)" transform="translate(162 154.20001)">
        <g transform="translate(227.3349, 28.8)" id="3Y-Brick" fill="#FFFFFF">
          <path d="M66.24 96.048Q69.12 102.96 69.12 111.888Q69.12 119.952 66.672 126.144Q63.36 135.216 55.728 140.184Q48.096 145.152 37.296 145.152Q26.64 145.152 18.792 139.752Q10.944 134.352 7.632 125.136Q5.904 120.672 5.616 113.472Q5.616 111.744 7.344 111.744L20.736 111.744Q22.464 111.744 22.464 113.472Q22.752 118.08 23.904 120.816Q25.2 125.424 28.728 128.088Q32.256 130.752 37.296 130.752Q46.8 130.752 50.4 122.112Q52.272 117.936 52.272 111.312Q52.272 103.968 50.112 99.216Q46.368 91.152 37.152 91.152Q34.704 91.152 30.528 94.032Q29.952 94.32 29.52 94.32Q28.8 94.32 28.08 93.456L21.456 84.24Q21.024 83.52 21.024 83.088Q21.024 82.368 21.6 81.792L45.36 58.464Q45.648 58.176 45.504 57.888Q45.36 57.6 44.928 57.6L8.928 57.6Q8.208 57.6 7.704 57.096Q7.2 56.592 7.2 55.872L7.2 44.928Q7.2 44.208 7.704 43.704Q8.208 43.2 8.928 43.2L66.384 43.2Q67.104 43.2 67.608 43.704Q68.112 44.208 68.112 44.928L68.112 57.456Q68.112 58.752 67.248 59.616L46.656 80.352Q46.08 80.928 47.232 81.216Q60.624 83.088 66.24 96.048ZM112.896 143.856Q112.176 143.856 111.672 143.352Q111.168 142.848 111.168 142.128L111.168 103.536Q111.168 102.96 111.024 102.672L81.36 45.216Q81.072 44.64 81.072 44.352Q81.072 43.2 82.656 43.2L96.912 43.2Q98.352 43.2 98.928 44.496L119.088 84.672Q119.52 85.248 119.952 84.672L140.256 44.496Q140.976 43.2 142.272 43.2L156.672 43.2Q157.68 43.2 158.04 43.776Q158.4 44.352 157.968 45.216L128.16 102.672Q127.872 103.248 127.872 103.536L127.872 142.128Q127.872 142.848 127.368 143.352Q126.864 143.856 126.144 143.856L112.896 143.856ZM258.336 91.44Q257.472 91.872 258.336 92.304Q273.024 99.216 273.024 116.064Q273.024 129.744 263.88 136.872C257.784 141.624 249.84 144 240.048 144L203.76 144C203.28 144 202.872 143.832 202.536 143.496Q202.032 142.992 202.032 142.272L202.032 44.928Q202.032 44.208 202.536 43.704Q203.04 43.2 203.76 43.2L238.896 43.2Q254.592 43.2 263.088 49.968Q271.584 56.736 271.584 70.416Q271.584 85.536 258.336 91.44ZM219.456 57.6Q218.736 57.6 218.736 58.32L218.736 84.96Q218.736 85.68 219.456 85.68L238.896 85.68Q246.528 85.68 250.92 82.008Q255.312 78.336 255.312 71.856Q255.312 65.232 250.92 61.416Q246.528 57.6 238.896 57.6L219.456 57.6ZM240.048 129.456Q247.536 129.456 251.928 125.424Q256.32 121.392 256.32 114.48Q256.32 107.424 251.856 103.464Q247.392 99.504 239.76 99.504L219.456 99.504Q218.736 99.504 218.736 100.224L218.736 128.736Q218.736 129.456 219.456 129.456L240.048 129.456ZM324.288 69.552Q328.896 69.552 332.352 71.424Q333.504 72 333.216 73.584L330.768 86.544Q330.624 88.272 328.752 87.552Q326.592 86.832 323.712 86.832Q321.84 86.832 320.832 86.976Q314.784 87.264 310.752 91.224Q306.72 95.184 306.72 101.52L306.72 142.272Q306.72 142.992 306.216 143.496C305.88 143.832 305.472 144 304.992 144L291.744 144C291.264 144 290.856 143.832 290.52 143.496Q290.016 142.992 290.016 142.272L290.016 72.144Q290.016 71.424 290.52 70.92Q291.024 70.416 291.744 70.416L304.992 70.416Q305.712 70.416 306.216 70.92Q306.72 71.424 306.72 72.144L306.72 78.624Q306.72 79.2 306.936 79.272Q307.152 79.344 307.44 78.912Q313.488 69.552 324.288 69.552ZM353.664 60.336Q349.2 60.336 346.32 57.456Q343.44 54.576 343.44 50.112Q343.44 45.648 346.32 42.768Q349.2 39.888 353.664 39.888Q358.128 39.888 361.008 42.768Q363.888 45.648 363.888 50.112Q363.888 54.576 361.008 57.456Q358.128 60.336 353.664 60.336ZM346.752 144C346.272 144 345.864 143.832 345.528 143.496Q345.024 142.992 345.024 142.272L345.024 72Q345.024 71.28 345.528 70.776Q346.032 70.272 346.752 70.272L360 70.272Q360.72 70.272 361.224 70.776Q361.728 71.28 361.728 72L361.728 142.272Q361.728 142.992 361.224 143.496C360.888 143.832 360.48 144 360 144L346.752 144ZM411.552 145.152Q400.464 145.152 392.4 139.464Q384.336 133.776 381.168 124.128Q378.864 117.648 378.864 106.848Q378.864 96.48 381.168 89.856Q384.192 80.352 392.328 74.808Q400.464 69.264 411.552 69.264Q422.784 69.264 431.136 74.88Q439.488 80.496 442.224 88.992Q442.944 91.296 443.232 93.6L443.232 93.888Q443.232 95.328 441.648 95.616L428.688 97.488L428.4 97.488Q427.104 97.488 426.672 96.048Q426.672 95.328 426.528 94.896Q426.24 93.744 425.952 92.88Q424.656 88.848 420.768 86.256Q416.88 83.664 411.552 83.664Q406.08 83.664 402.264 86.472Q398.448 89.28 397.152 94.176Q395.712 98.784 395.712 106.992Q395.712 114.912 397.008 119.808Q398.448 124.848 402.192 127.8Q405.936 130.752 411.552 130.752Q417.024 130.752 420.984 127.944Q424.944 125.136 426.096 120.384Q426.24 120.096 426.24 119.664Q426.384 119.52 426.384 119.232Q426.816 117.504 428.4 117.792L441.36 119.808Q442.08 119.952 442.584 120.456Q443.088 120.96 442.944 121.824Q442.512 124.128 442.224 125.136Q439.488 134.352 431.136 139.752Q422.784 145.152 411.552 145.152ZM459.072 144C458.592 144 458.184 143.832 457.848 143.496Q457.344 142.992 457.344 142.272L457.344 44.928Q457.344 44.208 457.848 43.704Q458.352 43.2 459.072 43.2L472.32 43.2Q473.04 43.2 473.544 43.704Q474.048 44.208 474.048 44.928L474.048 96.912Q474.048 97.344 474.336 97.488Q474.624 97.632 474.912 97.2L498.24 71.424Q499.248 70.416 500.4 70.416L515.664 70.416Q517.104 70.416 517.104 71.424Q517.104 71.856 516.672 72.576L498.384 94.464Q497.952 94.896 498.24 95.472L519.84 141.984Q520.128 142.56 520.128 142.848C520.128 143.616 519.6 144 518.544 144L504.576 144C503.616 144 502.944 143.568 502.56 142.704L486.864 106.128Q486.72 105.84 486.36 105.768Q486 105.696 485.856 105.984L474.336 119.232Q474.048 119.808 474.048 120.24L474.048 142.272Q474.048 142.992 473.544 143.496C473.208 143.832 472.8 144 472.32 144L459.072 144Z" />
        </g>
        <g transform="translate(266.5029, 851.6)" id="Veneer" fill="#FFFFFF">
          <path d="M36.576 144C35.616 144 34.992 143.52 34.704 142.56L4.464 45.216L4.32 44.64Q4.32 43.2 5.904 43.2L20.16 43.2Q21.744 43.2 22.176 44.64L43.776 119.808Q43.92 120.24 44.208 120.24Q44.496 120.24 44.64 119.808L66.096 44.64Q66.528 43.2 68.112 43.2L82.08 43.2Q82.944 43.2 83.376 43.776Q83.808 44.352 83.52 45.216L52.848 142.56C52.56 143.52 51.936 144 50.976 144L36.576 144ZM150.624 98.928Q151.2 102.528 151.2 106.992L151.056 111.456Q151.056 113.184 149.328 113.184L104.256 113.184Q103.536 113.184 103.536 113.904Q103.968 118.656 104.832 120.384Q108.288 130.752 121.68 130.896Q131.472 130.896 137.232 122.832Q137.808 121.968 138.672 121.968Q139.248 121.968 139.68 122.4L148.608 129.744Q149.904 130.752 149.04 132.048Q144.576 138.384 137.16 141.84Q129.744 145.296 120.672 145.296Q109.44 145.296 101.592 140.256Q93.744 135.216 90.144 126.144Q86.832 118.368 86.832 104.544Q86.832 96.192 88.56 91.008Q91.44 80.928 99.432 75.096Q107.424 69.264 118.656 69.264Q147.024 69.264 150.624 98.928ZM118.656 83.664Q113.328 83.664 109.8 86.328Q106.272 88.992 104.832 93.744Q103.968 96.192 103.68 100.08Q103.392 100.8 104.256 100.8L133.488 100.8Q134.208 100.8 134.208 100.08Q133.92 96.48 133.344 94.608Q132.048 89.424 128.232 86.544Q124.416 83.664 118.656 83.664ZM201.744 69.264Q213.408 69.264 220.392 76.176Q227.376 83.088 227.376 95.04L227.376 142.272Q227.376 142.992 226.872 143.496C226.536 143.832 226.128 144 225.648 144L212.4 144C211.92 144 211.512 143.832 211.176 143.496Q210.672 142.992 210.672 142.272L210.672 98.496Q210.672 91.872 206.928 87.768Q203.184 83.664 196.992 83.664Q190.8 83.664 186.984 87.696Q183.168 91.728 183.168 98.352L183.168 142.272Q183.168 142.992 182.664 143.496C182.328 143.832 181.92 144 181.44 144L168.192 144C167.712 144 167.304 143.832 166.968 143.496Q166.464 142.992 166.464 142.272L166.464 72.144Q166.464 71.424 166.968 70.92Q167.472 70.416 168.192 70.416L181.44 70.416Q182.16 70.416 182.664 70.92Q183.168 71.424 183.168 72.144L183.168 76.752Q183.168 77.184 183.456 77.328Q183.744 77.472 183.888 77.04Q189.792 69.264 201.744 69.264ZM306.288 98.928Q306.864 102.528 306.864 106.992L306.72 111.456Q306.72 113.184 304.992 113.184L259.92 113.184Q259.2 113.184 259.2 113.904Q259.632 118.656 260.496 120.384Q263.952 130.752 277.344 130.896Q287.136 130.896 292.896 122.832Q293.472 121.968 294.336 121.968Q294.912 121.968 295.344 122.4L304.272 129.744Q305.568 130.752 304.704 132.048Q300.24 138.384 292.824 141.84Q285.408 145.296 276.336 145.296Q265.104 145.296 257.256 140.256Q249.408 135.216 245.808 126.144Q242.496 118.368 242.496 104.544Q242.496 96.192 244.224 91.008Q247.104 80.928 255.096 75.096Q263.088 69.264 274.32 69.264Q302.688 69.264 306.288 98.928ZM274.32 83.664Q268.992 83.664 265.464 86.328Q261.936 88.992 260.496 93.744Q259.632 96.192 259.344 100.08Q259.056 100.8 259.92 100.8L289.152 100.8Q289.872 100.8 289.872 100.08Q289.584 96.48 289.008 94.608Q287.712 89.424 283.896 86.544Q280.08 83.664 274.32 83.664ZM384.192 98.928Q384.768 102.528 384.768 106.992L384.624 111.456Q384.624 113.184 382.896 113.184L337.824 113.184Q337.104 113.184 337.104 113.904Q337.536 118.656 338.4 120.384Q341.856 130.752 355.248 130.896Q365.04 130.896 370.8 122.832Q371.376 121.968 372.24 121.968Q372.816 121.968 373.248 122.4L382.176 129.744Q383.472 130.752 382.608 132.048Q378.144 138.384 370.728 141.84Q363.312 145.296 354.24 145.296Q343.008 145.296 335.16 140.256Q327.312 135.216 323.712 126.144Q320.4 118.368 320.4 104.544Q320.4 96.192 322.128 91.008Q325.008 80.928 333 75.096Q340.992 69.264 352.224 69.264Q380.592 69.264 384.192 98.928ZM352.224 83.664Q346.896 83.664 343.368 86.328Q339.84 88.992 338.4 93.744Q337.536 96.192 337.248 100.08Q336.96 100.8 337.824 100.8L367.056 100.8Q367.776 100.8 367.776 100.08Q367.488 96.48 366.912 94.608Q365.616 89.424 361.8 86.544Q357.984 83.664 352.224 83.664ZM434.304 69.552Q438.912 69.552 442.368 71.424Q443.52 72 443.232 73.584L440.784 86.544Q440.64 88.272 438.768 87.552Q436.608 86.832 433.728 86.832Q431.856 86.832 430.848 86.976Q424.8 87.264 420.768 91.224Q416.736 95.184 416.736 101.52L416.736 142.272Q416.736 142.992 416.232 143.496C415.896 143.832 415.488 144 415.008 144L401.76 144C401.28 144 400.872 143.832 400.536 143.496Q400.032 142.992 400.032 142.272L400.032 72.144Q400.032 71.424 400.536 70.92Q401.04 70.416 401.76 70.416L415.008 70.416Q415.728 70.416 416.232 70.92Q416.736 71.424 416.736 72.144L416.736 78.624Q416.736 79.2 416.952 79.272Q417.168 79.344 417.456 78.912Q423.504 69.552 434.304 69.552Z" />
        </g>
      </g>
    </g>
    <g id="Group-8" transform="translate(347 496)">
      <g id="Rectangle-3">
        <use stroke="none" fill="#7C573D" xlink:href="#path_3" fill-rule="evenodd" />
        <g clip-path="url(#clip_3)">
          <use xlink:href="#path_3" fill="none" stroke="#FFFFFF" stroke-width="14" />
        </g>
      </g>
      <g id="Group-7" transform="translate(368 248)">
        <g id="Rectangle-2">
          <use stroke="none" fill="#BA9F81" xlink:href="#path_4" fill-rule="evenodd" />
          <g clip-path="url(#clip_4)">
            <use xlink:href="#path_4" fill="none" stroke="#FFFFFF" stroke-width="14" />
          </g>
        </g>
        <g id="Rectangle-3">
          <use stroke="none" fill="#343331" xlink:href="#path_5" fill-rule="evenodd" />
          <g clip-path="url(#clip_5)">
            <use xlink:href="#path_5" fill="none" stroke="#FFFFFF" stroke-width="14" />
          </g>
        </g>
        <g id="Rectangle">
          <use stroke="none" fill="#BBA99B" xlink:href="#path_6" fill-rule="evenodd" />
          <g clip-path="url(#clip_6)">
            <use xlink:href="#path_6" fill="none" stroke="#FFFFFF" stroke-width="14" />
          </g>
        </g>
      </g>
      <g id="Rectangle-5">
        <use stroke="none" fill="#6B3324" xlink:href="#path_7" fill-rule="evenodd" />
        <g clip-path="url(#clip_7)">
          <use xlink:href="#path_7" fill="none" stroke="#FFFFFF" stroke-width="14" />
        </g>
      </g>
      <g id="Rectangle-4">
        <use stroke="none" fill="#503529" xlink:href="#path_8" fill-rule="evenodd" />
        <g clip-path="url(#clip_8)">
          <use xlink:href="#path_8" fill="none" stroke="#FFFFFF" stroke-width="14" />
        </g>
      </g>
      <g id="Rectangle-2">
        <use stroke="none" fill="#503529" xlink:href="#path_9" fill-rule="evenodd" />
        <g clip-path="url(#clip_9)">
          <use xlink:href="#path_9" fill="none" stroke="#FFFFFF" stroke-width="14" />
        </g>
      </g>
      <g id="Rectangle">
        <use stroke="none" fill="#C48E54" xlink:href="#path_10" fill-rule="evenodd" />
        <g clip-path="url(#clip_10)">
          <use xlink:href="#path_10" fill="none" stroke="#FFFFFF" stroke-width="14" />
        </g>
      </g>
      <g id="Group-6" transform="translate(4 248)">
        <g id="Rectangle-2">
          <use stroke="none" fill="#343331" xlink:href="#path_4" fill-rule="evenodd" />
          <g clip-path="url(#clip_4)">
            <use xlink:href="#path_4" fill="none" stroke="#FFFFFF" stroke-width="14" />
          </g>
        </g>
        <g id="Rectangle-3">
          <use stroke="none" fill="#503529" xlink:href="#path_5" fill-rule="evenodd" />
          <g clip-path="url(#clip_5)">
            <use xlink:href="#path_5" fill="none" stroke="#FFFFFF" stroke-width="14" />
          </g>
        </g>
        <g id="Rectangle">
          <use stroke="none" fill="#BBA99B" xlink:href="#path_6" fill-rule="evenodd" />
          <g clip-path="url(#clip_6)">
            <use xlink:href="#path_6" fill="none" stroke="#FFFFFF" stroke-width="14" />
          </g>
        </g>
      </g>
      <g id="Group-5" transform="translate(368 124)">
        <g id="Rectangle-2">
          <use stroke="none" fill="#C48E54" xlink:href="#path_4" fill-rule="evenodd" />
          <g clip-path="url(#clip_4)">
            <use xlink:href="#path_4" fill="none" stroke="#FFFFFF" stroke-width="14" />
          </g>
        </g>
        <g id="Rectangle-3">
          <use stroke="none" fill="#503529" xlink:href="#path_5" fill-rule="evenodd" />
          <g clip-path="url(#clip_5)">
            <use xlink:href="#path_5" fill="none" stroke="#FFFFFF" stroke-width="14" />
          </g>
        </g>
        <g id="Rectangle">
          <use stroke="none" fill="#6B3324" xlink:href="#path_6" fill-rule="evenodd" />
          <g clip-path="url(#clip_6)">
            <use xlink:href="#path_6" fill="none" stroke="#FFFFFF" stroke-width="14" />
          </g>
        </g>
      </g>
      <g id="Rectangle-7">
        <use stroke="none" fill="#7C573D" xlink:href="#path_11" fill-rule="evenodd" />
        <g clip-path="url(#clip_11)">
          <use xlink:href="#path_11" fill="none" stroke="#FFFFFF" stroke-width="14" />
        </g>
      </g>
      <g id="Group-4" transform="translate(4 124)">
        <g id="Rectangle-2">
          <use stroke="none" fill="#343331" xlink:href="#path_4" fill-rule="evenodd" />
          <g clip-path="url(#clip_4)">
            <use xlink:href="#path_4" fill="none" stroke="#FFFFFF" stroke-width="14" />
          </g>
        </g>
        <g id="Rectangle-3">
          <use stroke="none" fill="#BBA99B" xlink:href="#path_5" fill-rule="evenodd" />
          <g clip-path="url(#clip_5)">
            <use xlink:href="#path_5" fill="none" stroke="#FFFFFF" stroke-width="14" />
          </g>
        </g>
        <g id="Rectangle">
          <use stroke="none" fill="#C48E54" xlink:href="#path_6" fill-rule="evenodd" />
          <g clip-path="url(#clip_6)">
            <use xlink:href="#path_6" fill="none" stroke="#FFFFFF" stroke-width="14" />
          </g>
        </g>
      </g>
      <g id="Group-3" transform="translate(368 0)">
        <g id="Rectangle-2">
          <use stroke="none" fill="#503529" xlink:href="#path_4" fill-rule="evenodd" />
          <g clip-path="url(#clip_4)">
            <use xlink:href="#path_4" fill="none" stroke="#FFFFFF" stroke-width="14" />
          </g>
        </g>
        <g id="Rectangle-3">
          <use stroke="none" fill="#C48E54" xlink:href="#path_5" fill-rule="evenodd" />
          <g clip-path="url(#clip_5)">
            <use xlink:href="#path_5" fill="none" stroke="#FFFFFF" stroke-width="14" />
          </g>
        </g>
        <g id="Rectangle">
          <use stroke="none" fill="#7C573D" xlink:href="#path_6" fill-rule="evenodd" />
          <g clip-path="url(#clip_6)">
            <use xlink:href="#path_6" fill="none" stroke="#FFFFFF" stroke-width="14" />
          </g>
        </g>
      </g>
      <g id="Group-2" transform="translate(4 0)">
        <g id="Rectangle-2">
          <use stroke="none" fill="#BBA99B" xlink:href="#path_4" fill-rule="evenodd" />
          <g clip-path="url(#clip_4)">
            <use xlink:href="#path_4" fill="none" stroke="#FFFFFF" stroke-width="14" />
          </g>
        </g>
        <g id="Rectangle-3">
          <use stroke="none" fill="#BA9F81" xlink:href="#path_5" fill-rule="evenodd" />
          <g clip-path="url(#clip_5)">
            <use xlink:href="#path_5" fill="none" stroke="#FFFFFF" stroke-width="14" />
          </g>
        </g>
        <g id="Rectangle">
          <use stroke="none" fill="#6B3324" xlink:href="#path_6" fill-rule="evenodd" />
          <g clip-path="url(#clip_6)">
            <use xlink:href="#path_6" fill="none" stroke="#FFFFFF" stroke-width="14" />
          </g>
        </g>
      </g>
      <g id="Rectangle-6">
        <use stroke="none" fill="#343331" xlink:href="#path_12" fill-rule="evenodd" />
        <g clip-path="url(#clip_12)">
          <use xlink:href="#path_12" fill="none" stroke="#FFFFFF" stroke-width="14" />
        </g>
      </g>
    </g>
  </g>
</svg>